<svg width="24" height="24" viewBox="0 0 24 24" fill="none" xmlns="http://www.w3.org/2000/svg">
<g clip-path="url(#clip0_0_1820)">
<path d="M11.9416 22.9398C18.0153 22.9398 22.9389 18.0162 22.9389 11.9426C22.9389 5.86895 18.0153 0.945312 11.9416 0.945312C5.86803 0.945312 0.944397 5.86895 0.944397 11.9426C0.944397 18.0162 5.86803 22.9398 11.9416 22.9398Z" fill="#84A17D"/>
<path fill-rule="evenodd" clip-rule="evenodd" d="M7.55459 11.1681C7.14959 10.8976 6.60858 10.9591 6.27358 11.3131C5.93908 11.6666 5.90758 12.2106 6.20008 12.6001L9.20008 16.6001C9.38108 16.8411 9.66108 16.9881 9.96258 16.9996C10.2636 17.0106 10.5541 16.8856 10.7526 16.6586L17.7526 8.65859C18.0981 8.26409 18.0796 7.66959 17.7106 7.29659C17.3416 6.92359 16.7476 6.89959 16.3491 7.24059L9.92458 12.7476L7.55459 11.1681Z" fill="white"/>
<path fill-rule="evenodd" clip-rule="evenodd" d="M11.9419 0.445312C5.5962 0.445312 0.444885 5.59662 0.444885 11.9423C0.444885 18.288 5.5962 23.4393 11.9419 23.4393C18.2875 23.4393 23.4388 18.288 23.4388 11.9423C23.4388 5.59662 18.2875 0.445312 11.9419 0.445312ZM11.9419 1.44477C17.7356 1.44477 22.4394 6.14853 22.4394 11.9423C22.4394 17.7361 17.7356 22.4398 11.9419 22.4398C6.14811 22.4398 1.44435 17.7361 1.44435 11.9423C1.44435 6.14853 6.14811 1.44477 11.9419 1.44477Z" fill="#84A17D"/>
<path fill-rule="evenodd" clip-rule="evenodd" d="M7.83214 10.7521C7.22414 10.3466 6.41264 10.4386 5.91064 10.9691C5.40814 11.5001 5.36164 12.3156 5.80014 12.9001L8.80014 16.9001C9.07164 17.2621 9.49163 17.4821 9.94363 17.4991C10.3956 17.5161 10.8311 17.3281 11.1291 16.9881L18.1291 8.98809C18.6471 8.39559 18.6196 7.50409 18.0661 6.94509C17.5126 6.38559 16.6211 6.34908 16.0241 6.86108L9.88664 12.1216L7.83214 10.7521ZM7.27763 11.5841L9.64714 13.1641C9.83364 13.2881 10.0796 13.2731 10.2501 13.1276L16.6746 7.62058C16.8736 7.44958 17.1711 7.46208 17.3556 7.64858C17.5401 7.83458 17.5491 8.13208 17.3766 8.32958L10.3766 16.3296C10.2771 16.4426 10.1321 16.5056 9.98114 16.4996C9.83064 16.4941 9.69064 16.4206 9.60014 16.3001L6.60014 12.3001C6.45414 12.1051 6.46963 11.8336 6.63713 11.6566C6.80413 11.4796 7.07463 11.4491 7.27763 11.5841Z" fill="#84A17D"/>
</g>
<defs>
<clipPath id="clip0_0_1820">
<rect width="24" height="24" fill="white"/>
</clipPath>
</defs>
</svg>
