<svg width="24" height="24" viewBox="0 0 24 24" fill="none" xmlns="http://www.w3.org/2000/svg">
<g clip-path="url(#clip0_348_597)">
<path d="M11.9416 22.9398C18.0152 22.9398 22.9388 18.0162 22.9388 11.9426C22.9388 5.86895 18.0152 0.945312 11.9416 0.945312C5.86797 0.945312 0.944336 5.86895 0.944336 11.9426C0.944336 18.0162 5.86797 22.9398 11.9416 22.9398Z" fill="#172426" fill-opacity="0.5"/>
<path fill-rule="evenodd" clip-rule="evenodd" d="M11.9418 0.445312C5.59614 0.445312 0.444824 5.59662 0.444824 11.9423C0.444824 18.288 5.59614 23.4393 11.9418 23.4393C18.2875 23.4393 23.4388 18.288 23.4388 11.9423C23.4388 5.59662 18.2875 0.445312 11.9418 0.445312ZM11.9418 1.44477C17.7356 1.44477 22.4393 6.14853 22.4393 11.9423C22.4393 17.7361 17.7356 22.4398 11.9418 22.4398C6.14804 22.4398 1.44428 17.7361 1.44428 11.9423C1.44428 6.14853 6.14804 1.44477 11.9418 1.44477Z" fill="#172426" fill-opacity="0.5"/>
<path d="M8.46411 16.535L15.5361 9.46503M8.46411 9.46503L15.5361 16.535" stroke="white" stroke-width="1.5" stroke-linecap="round"/>
</g>
<defs>
<clipPath id="clip0_348_597">
<rect width="24" height="24" fill="white"/>
</clipPath>
</defs>
</svg>
