<svg width="153" height="153" viewBox="0 0 153 153" fill="none" xmlns="http://www.w3.org/2000/svg">
<g clip-path="url(#clip0_159_238)">
<path d="M128.045 86.1861C127.975 86.2448 127.901 86.2976 127.823 86.344C61.9177 125.603 1.79742 71.9512 1.19837 71.4053C0.872575 71.1026 0.679411 70.6836 0.660864 70.2393C0.642317 69.795 0.799885 69.3614 1.09932 69.0326C1.39875 68.7039 1.81584 68.5066 2.25993 68.4837C2.70402 68.4608 3.1392 68.6141 3.47088 68.9102C4.05346 69.4391 62.3673 121.408 126.095 83.4451C126.459 83.2284 126.891 83.1566 127.306 83.2441C127.721 83.3316 128.087 83.5718 128.333 83.9171C128.579 84.2624 128.685 84.6875 128.632 85.1079C128.578 85.5283 128.369 85.9132 128.045 86.1861Z" fill="#84A17D"/>
<path d="M143.538 73.0464C137.722 81.4516 131.461 93.2448 129.109 102.738L124.663 86.2562L110.7 76.4416C120.427 77.4794 133.648 75.6308 143.538 73.0464Z" fill="#84A17D"/>
</g>
<defs>
<clipPath id="clip0_159_238">
<rect width="108" height="108" fill="white" transform="translate(0 70) rotate(-40)"/>
</clipPath>
</defs>
</svg>
