<svg width="153" height="153" viewBox="0 0 153 153" fill="none" xmlns="http://www.w3.org/2000/svg">
<g clip-path="url(#clip0_159_242)">
<path d="M128.766 66.8178C128.696 66.7591 128.622 66.7064 128.544 66.6599C62.6388 27.4005 2.51861 81.0527 1.91956 81.5986C1.59377 81.9013 1.4006 82.3203 1.38206 82.7646C1.36351 83.2089 1.52108 83.6425 1.82051 83.9713C2.11994 84.3 2.53703 84.4973 2.98112 84.5202C3.42521 84.5431 3.86039 84.3899 4.19207 84.0937C4.77465 83.5648 63.0885 31.5954 126.816 69.5588C127.18 69.7755 127.613 69.8473 128.027 69.7598C128.442 69.6723 128.808 69.4321 129.054 69.0868C129.3 68.7415 129.406 68.3164 129.353 67.896C129.3 67.4756 129.09 67.0907 128.766 66.8178Z" fill="#84A17D"/>
<path d="M144.259 79.9614C138.443 71.5562 132.183 59.763 129.83 50.2703L125.385 66.7516L111.422 76.5662C121.148 75.5284 134.369 77.377 144.259 79.9614Z" fill="#84A17D"/>
</g>
<defs>
<clipPath id="clip0_159_242">
<rect width="108" height="108" fill="white" transform="matrix(0.766044 0.642788 0.642788 -0.766044 0.721436 83)"/>
</clipPath>
</defs>
</svg>
