<svg width="54" height="54" viewBox="0 0 54 54" fill="none" xmlns="http://www.w3.org/2000/svg">
<g clip-path="url(#clip0_0_1194)">
<path d="M1.58709 34.9894C1.24706 35.8065 1.05469 36.6962 1.05469 37.6456V46.1835H34.1949C33.6265 44.7925 33.3723 43.2487 33.5147 41.6488C33.559 41.1532 33.6392 40.6691 33.7541 40.1987L31.4593 36.4624H35.5838C36.8493 34.8678 38.5988 33.691 40.5878 33.1352C39.3655 31.6039 37.5622 30.5134 35.5901 30.0621L26.9794 28.0605L25.9175 23.1367C24.6034 23.9213 23.0722 24.3991 21.4302 24.3991C19.8589 24.3991 18.3846 23.9498 17.1085 23.2264L16.2786 28.0595L8.81993 29.7246" stroke="#172426" stroke-width="2.10938" stroke-miterlimit="10" stroke-linecap="round" stroke-linejoin="round"/>
<path d="M30.215 13.1533V15.597C30.215 18.7519 28.4825 21.5782 25.918 23.132C24.6474 23.9002 23.1042 24.3591 21.6123 24.3939C20.1716 24.4152 18.727 24.0722 17.4514 23.4074C14.6154 21.9347 12.6442 18.976 12.6442 15.5941V13.1513C12.7795 13.0904 15.2222 11.9725 15.7768 9.57031H27.0775C27.6476 12.0411 30.215 13.1533 30.215 13.1533Z" stroke="#172426" stroke-width="2.10938" stroke-miterlimit="10" stroke-linecap="round" stroke-linejoin="round"/>
<path d="M21.3872 15.2305L20.639 17.6666C20.568 17.8795 20.7266 18.0993 20.951 18.0993H22.384" stroke="#172426" stroke-width="2.10938" stroke-miterlimit="10" stroke-linecap="round" stroke-linejoin="round"/>
<path d="M26.9791 28.0495L21.6285 31.7058L16.2778 28.0495L17.1082 23.2152L17.112 23.2142C17.223 23.2788 17.336 23.3405 17.4508 23.4003C18.7263 24.0646 20.1716 24.4081 21.6122 24.3863C23.1041 24.3521 24.6472 23.8928 25.918 23.125L26.9791 28.0495Z" stroke="#172426" stroke-width="2.10938" stroke-miterlimit="10" stroke-linecap="round" stroke-linejoin="round"/>
<path d="M7.87402 39.8555V46.1753" stroke="#172426" stroke-width="2.10938" stroke-miterlimit="10" stroke-linecap="round" stroke-linejoin="round"/>
<path d="M18.9147 1.77734C17.1816 1.77734 15.7767 3.20413 15.7767 4.96419V5.04097C14.0436 5.04097 12.6387 6.46775 12.6387 8.22792V13.147C12.6387 13.147 15.2067 12.0346 15.7767 9.56431H27.0773C27.6472 12.0346 30.2154 13.147 30.2154 13.147V1.77734H18.9147Z" stroke="#172426" stroke-width="2.10938" stroke-miterlimit="10" stroke-linecap="round" stroke-linejoin="round"/>
<path d="M21.6285 31.7032L16.4112 35.4092L13.439 28.6803L16.2779 28.0469L21.6285 31.7032Z" stroke="#172426" stroke-width="2.10938" stroke-miterlimit="10" stroke-linecap="round" stroke-linejoin="round"/>
<path d="M21.6289 31.7032L26.8462 35.4092L29.8057 28.7038L26.9795 28.0469L21.6289 31.7032Z" stroke="#172426" stroke-width="2.10938" stroke-miterlimit="10" stroke-linecap="round" stroke-linejoin="round"/>
<path d="M21.6285 31.707L18.375 34.0182L19.8963 37.9241H21.6285H23.3607L24.882 34.0182L21.6285 31.707Z" stroke="#172426" stroke-width="2.10938" stroke-miterlimit="10" stroke-linecap="round" stroke-linejoin="round"/>
<path d="M24.8298 46.1751L23.3608 37.9258H21.6285H19.8963L18.4272 46.1752L24.8298 46.1751Z" stroke="#172426" stroke-width="2.10938" stroke-miterlimit="10" stroke-linecap="round" stroke-linejoin="round"/>
<path d="M44.0716 32.8005C40.6852 32.4996 37.5506 33.9714 35.5829 36.4479H31.459L33.7532 40.1851C33.6391 40.6548 33.5583 41.1389 33.5143 41.635C33.0385 46.99 36.9939 51.7166 42.3488 52.1924C47.7038 52.6682 52.4305 48.7128 52.9063 43.3579C53.3819 38.0029 49.4265 33.2763 44.0716 32.8005Z" stroke="#172426" stroke-width="2.10938" stroke-miterlimit="10" stroke-linecap="round" stroke-linejoin="round"/>
<path d="M47.9894 41.9325C47.9894 40.5265 46.8496 39.3867 45.4436 39.3867C44.5224 39.3867 43.7156 39.876 43.2686 40.6089C42.8217 39.8761 42.0148 39.3867 41.0937 39.3867C39.6877 39.3867 38.5479 40.5265 38.5479 41.9325C38.5479 42.6285 38.8274 43.2591 39.2801 43.7186C39.3451 43.7846 43.2681 47.3534 43.2681 47.3534L47.0444 43.9115C47.6207 43.4448 47.9894 42.7319 47.9894 41.9325Z" stroke="#172426" stroke-width="2.10938" stroke-miterlimit="10" stroke-linecap="round" stroke-linejoin="round"/>
<circle cx="4.54736" cy="31.4258" r="1.05469" fill="#172426"/>
</g>
<defs>
<clipPath id="clip0_0_1194">
<rect width="54" height="54" fill="white"/>
</clipPath>
</defs>
</svg>
