<svg width="48" height="48" viewBox="0 0 48 48" fill="none" xmlns="http://www.w3.org/2000/svg">
<g clip-path="url(#clip0_0_1292)">
<mask id="mask0_0_1292" style="mask-type:luminance" maskUnits="userSpaceOnUse" x="0" y="0" width="48" height="48">
<path d="M0 3.8147e-06H48V48H0V3.8147e-06Z" fill="white"/>
</mask>
<g mask="url(#mask0_0_1292)">
<path d="M1.40625 46.5938H46.5937" stroke="#172426" stroke-width="2.8125" stroke-miterlimit="10" stroke-linecap="round" stroke-linejoin="round"/>
<path d="M9 35.3438H5.25C4.73222 35.3438 4.3125 35.7635 4.3125 36.2812V46.5938H9.9375V36.2812C9.9375 35.7635 9.51778 35.3438 9 35.3438Z" stroke="#172426" stroke-width="2.8125" stroke-miterlimit="10" stroke-linecap="round" stroke-linejoin="round"/>
<path d="M20.25 31.9688H16.5C15.9822 31.9688 15.5625 32.3885 15.5625 32.9062V46.5938H21.1875V32.9062C21.1875 32.3885 20.7678 31.9688 20.25 31.9688Z" stroke="#172426" stroke-width="2.8125" stroke-miterlimit="10" stroke-linecap="round" stroke-linejoin="round"/>
<path d="M31.5 26.8125H27.75C27.2322 26.8125 26.8125 27.2322 26.8125 27.75V46.5938H32.4375V27.75C32.4375 27.2322 32.0178 26.8125 31.5 26.8125Z" stroke="#172426" stroke-width="2.8125" stroke-miterlimit="10" stroke-linecap="round" stroke-linejoin="round"/>
<path d="M42.75 17.4375H39C38.4822 17.4375 38.0625 17.8572 38.0625 18.375V46.5938H43.6875V18.375C43.6875 17.8572 43.2678 17.4375 42.75 17.4375Z" stroke="#172426" stroke-width="2.8125" stroke-miterlimit="10" stroke-linecap="round" stroke-linejoin="round"/>
<path d="M1.40625 28.8086C19.877 28.8086 38.3477 14.6879 44.2909 1.40547" stroke="#172426" stroke-width="2.8125" stroke-miterlimit="10" stroke-linecap="round" stroke-linejoin="round"/>
<path d="M35.6968 3.71263L44.2908 1.40984L46.5936 10.0039" stroke="#172426" stroke-width="2.8125" stroke-miterlimit="10" stroke-linecap="round" stroke-linejoin="round"/>
</g>
</g>
<defs>
<clipPath id="clip0_0_1292">
<rect width="48" height="48" fill="white"/>
</clipPath>
</defs>
</svg>
