<?xml version="1.0" encoding="UTF-8"?>
<svg xmlns="http://www.w3.org/2000/svg" width="202" height="50" viewBox="0 0 202 50" fill="none">
  <path d="M85.7462 16.0629V10.7529H61.3547C61.9984 10.7529 62.531 10.9456 62.9749 11.331C63.3966 11.7164 63.6185 12.1447 63.6185 12.6371V16.1272H77.8672L62.8639 33.3632V38.5233H85.7462V33.1063H70.9648L71.4975 32.5282L85.7462 16.0629Z" fill="black"></path>
  <path d="M115.532 23.6645C115.532 21.9302 115.288 20.2815 114.822 18.7399C114.356 17.1983 113.646 15.7638 112.691 14.4148C111.737 13.0873 110.383 12.0168 108.652 11.246C106.899 10.4752 104.879 10.0684 102.593 10.0684C98.1984 10.0684 94.8471 11.4387 92.4945 14.1793C90.1641 16.92 88.9878 20.5171 88.9878 24.9492C88.9878 26.812 89.2541 28.5891 89.7646 30.2378C90.2973 31.8864 91.074 33.3852 92.1172 34.7341C93.1603 36.083 94.5585 37.1536 96.2897 37.9458C98.043 38.7166 100.018 39.1234 102.26 39.1234C104.302 39.1234 106.144 38.8451 107.742 38.2884C109.34 37.7317 110.627 36.9823 111.582 36.0188C112.536 35.0553 113.29 34.1346 113.845 33.2353C114.4 32.3361 114.822 31.3726 115.11 30.3662H108.141C107.631 31.4796 106.987 32.3147 106.211 32.9142C105.412 33.5137 104.169 33.792 102.482 33.792C100.44 33.792 98.842 33.0426 97.7101 31.5439C96.5782 30.0451 96.0012 28.2037 96.0012 25.9769H115.421C115.488 25.4845 115.532 24.7137 115.532 23.6645ZM96.1565 21.7375C96.5782 17.2625 98.7089 15.0144 102.526 15.0144C104.546 15.0144 106.033 15.6353 107.01 16.8557C107.986 18.0976 108.474 19.7034 108.519 21.7161H96.1565V21.7375Z" fill="black"></path>
  <path d="M143.54 12.8304C141.809 10.989 139.5 10.0684 136.571 10.0684C132.443 10.0684 129.58 11.5671 128.004 14.5861C127.959 14.0294 127.937 12.7448 127.937 10.7321H118.771C119.392 10.7321 119.903 10.9034 120.302 11.246C120.724 11.5886 120.946 12.0168 120.968 12.4878C121.013 13.6012 121.035 15.3355 121.035 17.6908V38.4597H128.004V23.2577C128.004 18.119 130.023 15.5496 134.041 15.5496C137.459 15.5496 139.167 17.5195 139.167 21.4806V38.4597H146.136V20.7098C146.114 17.3054 145.249 14.6718 143.54 12.8304Z" fill="black"></path>
  <path d="M162.848 33.8145C160.806 33.8145 159.209 33.0223 158.099 31.4378C156.989 29.8534 156.434 27.5624 156.434 24.5434C156.434 21.6957 157.011 19.469 158.143 17.8631C159.275 16.2573 160.873 15.4436 162.915 15.4436C165.933 15.4436 167.775 16.8782 168.419 19.7687H175.277C175.211 19.0407 175.033 18.2699 174.789 17.4777C174.545 16.6855 174.101 15.829 173.502 14.9298C172.88 14.0305 172.148 13.2383 171.282 12.5317C170.417 11.8465 169.262 11.247 167.82 10.7974C166.377 10.3263 164.801 10.0908 163.07 10.0908C158.831 10.0908 155.48 11.504 153.039 14.3088C150.597 17.1137 149.376 20.6252 149.376 24.8218C149.376 29.1683 150.531 32.6369 152.861 35.2276C155.191 37.8398 158.454 39.1245 162.715 39.1245C164.668 39.1245 166.399 38.8676 167.931 38.3537C169.462 37.8398 170.705 37.1118 171.682 36.1697C172.658 35.2276 173.435 34.2427 173.99 33.1722C174.567 32.123 174.989 30.9668 175.277 29.7035H168.419C167.443 32.4442 165.578 33.8145 162.848 33.8145Z" fill="black"></path>
  <path d="M202 10.7529L190.237 49.9997H182.625L186.287 38.3948L177.52 12.6156C177.387 12.1232 177.12 11.695 176.743 11.3095C176.366 10.9241 175.878 10.7314 175.256 10.7314H184.378L189.46 28.3529L195.031 10.7314H202V10.7529Z" fill="black"></path>
  <path d="M53.3238 11.8301V38.7333C53.3238 42.9607 49.7795 46.3737 45.4193 46.3737H17.5865C13.213 46.3737 9.68208 42.9478 9.68208 38.7333V15.8249H13.2531V11.8301H9.6687V9.77458H15.7275V4.17676H45.406C49.7795 4.17676 53.3238 7.60267 53.3238 11.8301Z" fill="#FF4D03"></path>
  <path d="M47.7888 39.5377H41.0479L40.2855 38.594H40.2722C38.3596 36.3057 36.5406 33.9141 34.521 31.7163C33.8657 31.0053 33.0231 30.4235 32.0333 30.2813C31.3914 30.1908 29.1845 29.8288 28.5559 30.8372C28.5559 30.8372 30.0539 30.8372 30.0539 30.8243C29.7061 29.5056 30.2277 27.9155 31.3646 27.0881C32.7021 26.1185 34.3873 26.028 35.9254 26.558C37.2629 27.0234 38.3997 27.9155 39.3226 28.9368C40.9543 30.7596 42.3586 32.7764 43.8967 34.6768C45.1004 36.1765 46.3042 37.6632 47.5079 39.1628C47.5881 39.305 47.6818 39.4214 47.7888 39.5377Z" fill="#AD0B13"></path>
  <path d="M47.574 30.2153C47.2129 31.2883 46.7046 32.3096 46.0626 33.3051H44.5647L44.8054 31.7537L43.0667 29.5947C42.7992 29.1681 42.5183 28.7544 42.2241 28.3795C42.4916 27.578 42.6253 26.7506 42.6654 25.8973C42.7323 24.0874 42.3846 22.4326 41.6088 20.9201C40.8331 19.4075 39.6963 18.1535 38.2117 17.1709C36.7271 16.1884 34.9884 15.6971 33.0089 15.6971C31.3638 15.6971 29.9193 16.0074 28.6755 16.615C27.4316 17.2356 26.4018 18.0371 25.5726 19.0196C24.7567 20.0022 24.1548 21.114 23.767 22.368C23.3925 23.6091 23.232 24.876 23.3256 26.1688C23.4058 27.4616 23.7268 28.6898 24.302 29.8791C24.8637 31.0685 25.7063 32.0898 26.803 32.9431C27.0036 33.0982 27.2176 33.2533 27.4183 33.3956C28.0335 33.8222 28.6889 34.1583 29.3576 34.4298C30.0798 34.7142 30.8422 34.9081 31.6313 35.0116C32.2867 35.102 32.9286 35.1279 33.5573 35.0891L30.4276 31.6503C30.4276 31.6503 31.7784 30.4092 33.6643 32.2191C36.2322 34.4427 39.4956 38.8899 39.4956 38.8899L38.7333 39.2261C37.7569 39.6527 36.7271 39.963 35.6705 40.1181C35.6705 40.1181 35.6571 40.1181 35.6437 40.1181C34.012 40.3637 32.3937 40.3767 30.7887 40.144C29.1704 39.9113 27.6189 39.4459 26.0942 38.7219C24.5828 38.0108 23.232 37.0542 22.0416 35.8519C20.4233 34.2359 19.2731 32.4906 18.5642 30.6031C17.8553 28.7156 17.5343 26.8281 17.6146 24.9148C17.6815 23.0144 18.0961 21.1915 18.8718 19.4463C19.6342 17.701 20.6908 16.1496 22.055 14.7922C23.4192 13.4347 25.0242 12.3617 26.8966 11.5473C28.7691 10.7457 30.8154 10.332 33.049 10.332C35.2559 10.332 37.2754 10.7328 39.1211 11.5214C40.9535 12.31 42.5451 13.383 43.8692 14.7146C45.1933 16.0591 46.2499 17.5846 47.0256 19.3041C47.8013 21.0235 48.2427 22.8205 48.3363 24.6821C48.4567 26.5179 48.1892 28.3666 47.574 30.2153Z" fill="#AD0B13"></path>
  <path d="M46.2886 39.5338H39.5477L38.7854 38.5901H38.772C36.8594 36.3018 35.0405 33.9102 33.0209 31.7124C32.3655 31.0014 31.5229 30.4196 30.5332 30.2774C29.8912 30.1869 29.2358 30.3679 28.5537 30.8333C28.5537 30.8333 28.5537 30.8333 28.5537 30.8204C28.206 29.5017 28.7276 27.9116 29.8644 27.0842C31.2019 26.1146 32.8871 26.0241 34.4252 26.5541C35.7627 27.0195 36.8995 27.9116 37.8224 28.9329C39.4541 30.7557 40.8585 32.7725 42.3966 34.6729C43.6003 36.1726 44.804 37.6593 46.0077 39.1589C46.088 39.3011 46.1816 39.4175 46.2886 39.5338Z" fill="white"></path>
  <path d="M46.0754 30.2126C45.7143 31.2856 45.2061 32.3069 44.5641 33.3024L41.5682 29.592C41.3007 29.1654 41.0198 28.7517 40.7389 28.3768C41.0064 27.5753 41.1402 26.7479 41.1803 25.8946C41.2472 24.0847 40.8994 22.4299 40.1237 20.9174C39.348 19.4048 38.2111 18.1508 36.7265 17.1682C35.2419 16.1857 33.5032 15.6944 31.5237 15.6944C29.8786 15.6944 28.4342 16.0047 27.1903 16.6123C25.9465 17.2329 24.9166 18.0344 24.0874 19.0169C23.2715 19.9995 22.6697 21.1113 22.2818 22.3653C21.9073 23.6064 21.7468 24.8733 21.8404 26.1661C21.9207 27.446 22.2551 28.6871 22.8168 29.8764C23.3785 31.0658 24.2211 32.0871 25.3179 32.9404C25.5185 33.0955 25.7325 33.2506 25.9331 33.3929C26.5483 33.8195 27.2037 34.1685 27.8724 34.4271C28.5947 34.7115 29.357 34.9054 30.1461 35.0089C30.8015 35.0993 31.4435 35.1252 32.0721 35.0864L28.929 31.6476C28.929 31.6476 30.2799 30.4065 32.1657 32.2164C34.747 34.453 37.9971 38.8872 37.9971 38.8872L37.2347 39.2234C36.2584 39.65 35.2285 39.9603 34.1719 40.1154C34.1586 40.1154 34.1586 40.1154 34.1452 40.1154C32.5135 40.361 30.8951 40.374 29.2902 40.1413C27.6718 39.9086 26.107 39.4432 24.5956 38.7192C23.0843 38.0081 21.7334 37.0515 20.5431 35.8492C18.9247 34.2332 17.7745 32.4879 17.0657 30.6004C16.3568 28.7129 16.0358 26.8254 16.1161 24.9121C16.1829 23.0117 16.5975 21.1888 17.3733 19.4306C18.1356 17.6854 19.1922 16.134 20.5565 14.7766C21.9207 13.4191 23.5257 12.3461 25.3981 11.5316C27.2706 10.7301 29.3169 10.3164 31.5505 10.3164C33.7573 10.3164 35.7769 10.7172 37.6226 11.5058C39.455 12.2944 41.0465 13.3674 42.3706 14.699C43.6947 16.0435 44.7513 17.569 45.5271 19.2884C46.3028 21.0078 46.7442 22.8048 46.8378 24.6665C46.9582 26.5152 46.6907 28.3639 46.0754 30.2126Z" fill="white"></path>
  <path d="M8.66706 11.2207H3.26367V16.4436H8.66706V11.2207Z" fill="#FE4D00"></path>
  <path d="M8.13013 1.56348H0.493164V8.94535H8.13013V1.56348Z" fill="#FE4D00"></path>
  <path d="M14.6707 0H10.9124V3.63276H14.6707V0Z" fill="#FE4D00"></path>
  <path d="M2.47432 10.3545H0V12.7462H2.47432V10.3545Z" fill="#FE4D00"></path>
  <path d="M14.8326 4.88574H10.7266V8.85463H14.8326V4.88574Z" fill="#FE4D00"></path>
</svg>
