<svg width="36" height="36" viewBox="0 0 36 36" fill="none" xmlns="http://www.w3.org/2000/svg">
<mask id="mask0_159_136" style="mask-type:luminance" maskUnits="userSpaceOnUse" x="0" y="-1" width="36" height="37">
<path d="M0 -0.00390244H36V35.9961H0V-0.00390244Z" fill="white"/>
</mask>
<g mask="url(#mask0_159_136)">
<path d="M34.7731 6.61039C34.1178 14.8363 31.1056 30.0434 18.0001 34.9414C4.89462 30.0434 1.88236 14.8363 1.22705 6.61039C4.14924 6.53164 6.49423 3.99196 6.49423 1.05078H29.506C29.506 3.99196 31.851 6.53164 34.7731 6.61039Z" stroke="#153C3C" stroke-width="2.10937" stroke-miterlimit="10" stroke-linecap="round" stroke-linejoin="round"/>
<path d="M25.2902 22.5983C25.2127 22.7162 25.1315 22.8327 25.0465 22.9476C23.4338 25.1286 20.6178 25.9741 18.0006 25.9843C16.0131 25.9921 13.4973 25.4574 11.9614 24.1164C10.4994 22.84 9.55205 20.8516 9.38744 18.9288C9.20309 16.7753 10.1645 14.3694 11.4435 12.7709C11.4435 12.7709 12.5236 14.2903 14.5739 14.6574C14.4029 13.1809 14.6363 9.95473 16.5391 7.69643C17.256 6.84586 18.129 6.21235 19.1027 5.76572C18.9812 7.26 19.1323 8.78079 19.62 10.2022C19.9169 11.0676 20.2452 11.9728 20.8286 12.6915C21.6654 13.7226 22.9902 13.9623 23.5939 12.7873C23.7536 12.4763 24.7457 10.5515 24.7457 10.5515C26.5625 14.1233 27.6356 19.0263 25.2902 22.5983Z" stroke="#153C3C" stroke-width="2.10937" stroke-miterlimit="10" stroke-linecap="round" stroke-linejoin="round"/>
<path d="M15.5436 24.8662C13.0039 21.8183 18.0002 16.3229 18.0002 16.3229C18.0002 16.3229 22.9567 21.7751 20.4868 24.8296C19.2553 26.3527 16.7996 26.3735 15.5436 24.8662Z" stroke="#153C3C" stroke-width="2.10937" stroke-miterlimit="10" stroke-linecap="round" stroke-linejoin="round"/>
</g>
</svg>
