<svg width="36" height="36" viewBox="0 0 36 36" fill="none" xmlns="http://www.w3.org/2000/svg">
<mask id="mask0_159_158" style="mask-type:luminance" maskUnits="userSpaceOnUse" x="0" y="0" width="36" height="36">
<path d="M0 3.8147e-06H36V36H0V3.8147e-06Z" fill="white"/>
</mask>
<g mask="url(#mask0_159_158)">
<path d="M32.2017 9.78082C32.1843 8.86585 32.1677 8.00143 32.1677 7.16527C32.1677 6.5101 31.6367 5.97903 30.9815 5.97903C25.9084 5.97903 22.0459 4.52096 18.8263 1.39057C18.3658 0.942614 17.6328 0.942824 17.1724 1.39057C13.9532 4.52096 10.0913 5.97903 5.01855 5.97903C4.36337 5.97903 3.83223 6.5101 3.83223 7.16527C3.83223 8.00164 3.81585 8.86634 3.79827 9.78153C3.63571 18.2966 3.41303 29.9585 17.6108 34.8798C17.7367 34.9234 17.868 34.9453 17.9993 34.9453C18.1306 34.9453 18.262 34.9234 18.3878 34.8798C32.5867 29.9583 32.3643 18.2961 32.2017 9.78082Z" stroke="#153C3C" stroke-width="2.10938" stroke-miterlimit="10"/>
<path d="M20.1049 15.5412V11.0925H15.8956V15.5412H11.4465V19.7505H15.8956V24.1992H20.1049V19.7505H24.5533V15.5412H20.1049Z" stroke="#153C3C" stroke-width="2.10938" stroke-miterlimit="10" stroke-linejoin="round"/>
</g>
</svg>
