<svg width="64" height="46" viewBox="0 0 64 46" fill="none" xmlns="http://www.w3.org/2000/svg">
<path d="M49 45.2852C57.2727 45.2852 64 38.556 64 30.2852C64 22.7339 58.3933 16.468 51.1204 15.4353C51.7026 11.2055 53.3176 7.18091 55.8409 3.69091C56.3316 3.00978 56.3133 2.08691 55.7896 1.42778C55.2759 0.779159 54.3831 0.533282 53.5996 0.863784C41.6941 5.83315 34 17.3835 34 30.2852C34 38.556 40.7272 45.2852 49 45.2852ZM15 45.2852C23.2728 45.2852 30 38.556 30 30.2852C30 22.7339 24.3933 16.468 17.1204 15.4353C17.7026 11.2055 19.3176 7.1809 21.8409 3.69091C22.3316 3.00978 22.3133 2.0869 21.7896 1.42778C21.2759 0.779156 20.3831 0.533279 19.5996 0.863781C7.69413 5.83315 2.43924e-06 17.3835 1.31134e-06 30.2852C5.88279e-07 38.556 6.72725 45.2852 15 45.2852Z" fill="#84A17D"/>
</svg>
