<svg width="36" height="36" viewBox="0 0 36 36" fill="none" xmlns="http://www.w3.org/2000/svg">
<path d="M33.2508 30.4219H21.9539V34.9406H33.2508V30.4219Z" stroke="#153C3C" stroke-width="2.10938" stroke-miterlimit="10" stroke-linecap="round" stroke-linejoin="round"/>
<path d="M34.3804 25.9023H23.0835V30.4211H34.3804V25.9023Z" stroke="#153C3C" stroke-width="2.10938" stroke-miterlimit="10" stroke-linecap="round" stroke-linejoin="round"/>
<path d="M33.2508 21.3867H21.9539V25.9055H33.2508V21.3867Z" stroke="#153C3C" stroke-width="2.10938" stroke-miterlimit="10" stroke-linecap="round" stroke-linejoin="round"/>
<path d="M1.61938 16.8664C3.80139 14.6842 7.34521 14.6842 9.52722 16.8664C11.7092 14.6842 15.253 14.6842 17.4351 16.8664C19.6171 14.6842 23.1609 14.6842 25.3429 16.8664C27.5249 14.6842 31.0687 14.6842 33.2507 16.8664C33.2507 8.13751 26.1641 1.05078 17.4351 1.05078C8.70597 1.05078 1.61938 8.13751 1.61938 16.8664Z" stroke="#153C3C" stroke-width="2.10938" stroke-miterlimit="10" stroke-linecap="round" stroke-linejoin="round"/>
<path d="M25.3429 16.8664C25.3429 8.13751 21.7997 1.05078 17.4352 1.05078C13.0707 1.05078 9.52734 8.13751 9.52734 16.8664" stroke="#153C3C" stroke-width="2.10938" stroke-miterlimit="10" stroke-linecap="round" stroke-linejoin="round"/>
<path d="M17.4351 16.8672V27.5992C17.4351 29.158 16.1698 30.4234 14.6109 30.4234C13.0519 30.4234 11.7866 29.158 11.7866 27.5992" stroke="#153C3C" stroke-width="2.10938" stroke-miterlimit="10" stroke-linecap="round" stroke-linejoin="round"/>
<path d="M17.4351 1.05078V16.8664" stroke="#153C3C" stroke-width="2.10938" stroke-miterlimit="10" stroke-linecap="round" stroke-linejoin="round"/>
</svg>
