<svg width="24" height="24" viewBox="0 0 24 24" fill="none" xmlns="http://www.w3.org/2000/svg">
<path d="M19.9998 18H17.9998V9.25L11.9998 13L5.99976 9.25V18H3.99976V6H5.19976L11.9998 10.25L18.7998 6H19.9998M19.9998 4H3.99976C2.88976 4 1.99976 4.89 1.99976 6V18C1.99976 18.5304 2.21047 19.0391 2.58554 19.4142C2.96062 19.7893 3.46932 20 3.99976 20H19.9998C20.5302 20 21.0389 19.7893 21.414 19.4142C21.789 19.0391 21.9998 18.5304 21.9998 18V6C21.9998 5.46957 21.789 4.96086 21.414 4.58579C21.0389 4.21071 20.5302 4 19.9998 4Z" fill="white"/>
</svg>
