<svg width="20" height="20" viewBox="0 0 20 20" fill="none" xmlns="http://www.w3.org/2000/svg">
<path d="M16.6665 14.9987H14.9998V7.70703L9.99984 10.832L4.99984 7.70703V14.9987H3.33317V4.9987H4.33317L9.99984 8.54036L15.6665 4.9987H16.6665M16.6665 3.33203H3.33317C2.40817 3.33203 1.6665 4.0737 1.6665 4.9987V14.9987C1.6665 15.4407 1.8421 15.8646 2.15466 16.1772C2.46722 16.4898 2.89114 16.6654 3.33317 16.6654H16.6665C17.1085 16.6654 17.5325 16.4898 17.845 16.1772C18.1576 15.8646 18.3332 15.4407 18.3332 14.9987V4.9987C18.3332 4.55667 18.1576 4.13275 17.845 3.82019C17.5325 3.50763 17.1085 3.33203 16.6665 3.33203Z" fill="white"/>
</svg>
