<svg width="20" height="20" viewBox="0 0 20 20" fill="none" xmlns="http://www.w3.org/2000/svg">
<path d="M10.0013 7.5013C9.33826 7.5013 8.70238 7.76469 8.23354 8.23353C7.76469 8.70238 7.5013 9.33826 7.5013 10.0013C7.5013 10.6643 7.76469 11.3002 8.23354 11.7691C8.70238 12.2379 9.33826 12.5013 10.0013 12.5013C10.6643 12.5013 11.3002 12.2379 11.7691 11.7691C12.2379 11.3002 12.5013 10.6643 12.5013 10.0013C12.5013 9.33826 12.2379 8.70238 11.7691 8.23353C11.3002 7.76469 10.6643 7.5013 10.0013 7.5013ZM10.0013 5.83464C11.1064 5.83464 12.1662 6.27362 12.9476 7.05502C13.729 7.83643 14.168 8.89623 14.168 10.0013C14.168 11.1064 13.729 12.1662 12.9476 12.9476C12.1662 13.729 11.1064 14.168 10.0013 14.168C8.89623 14.168 7.83643 13.729 7.05502 12.9476C6.27362 12.1662 5.83464 11.1064 5.83464 10.0013C5.83464 8.89623 6.27362 7.83643 7.05502 7.05502C7.83643 6.27362 8.89623 5.83464 10.0013 5.83464ZM15.418 5.6263C15.418 5.90257 15.3082 6.16752 15.1129 6.36287C14.9175 6.55822 14.6526 6.66797 14.3763 6.66797C14.1 6.66797 13.8351 6.55822 13.6397 6.36287C13.4444 6.16752 13.3346 5.90257 13.3346 5.6263C13.3346 5.35003 13.4444 5.08508 13.6397 4.88973C13.8351 4.69438 14.1 4.58464 14.3763 4.58464C14.6526 4.58464 14.9175 4.69438 15.1129 4.88973C15.3082 5.08508 15.418 5.35003 15.418 5.6263ZM10.0013 3.33464C7.93964 3.33464 7.60297 3.34047 6.6438 3.38297C5.99047 3.4138 5.55214 3.5013 5.14547 3.65964C4.80515 3.78458 4.49748 3.98485 4.24547 4.24547C3.98464 4.49747 3.7841 4.80512 3.6588 5.14547C3.50047 5.5538 3.41297 5.9913 3.38297 6.6438C3.33964 7.5638 3.3338 7.88547 3.3338 10.0013C3.3338 12.0638 3.33964 12.3996 3.38214 13.3588C3.41297 14.0113 3.50047 14.4505 3.65797 14.8563C3.79964 15.2188 3.9663 15.4796 4.24297 15.7563C4.5238 16.0363 4.78464 16.2038 5.14297 16.3421C5.55464 16.5013 5.99297 16.5896 6.64297 16.6196C7.56297 16.663 7.88464 16.668 10.0005 16.668C12.063 16.668 12.3988 16.6621 13.358 16.6196C14.0096 16.5888 14.448 16.5013 14.8555 16.3438C15.1955 16.2182 15.503 16.0181 15.7555 15.758C16.0363 15.478 16.2038 15.2171 16.3421 14.858C16.5005 14.448 16.5888 14.0096 16.6188 13.358C16.6621 12.4388 16.6671 12.1163 16.6671 10.0013C16.6671 7.93964 16.6613 7.60297 16.6188 6.6438C16.588 5.99214 16.4996 5.55214 16.3421 5.14547C16.2165 4.80548 16.0163 4.49795 15.7563 4.24547C15.5044 3.98451 15.1967 3.78394 14.8563 3.6588C14.448 3.50047 14.0096 3.41297 13.358 3.38297C12.4388 3.33964 12.118 3.33464 10.0013 3.33464ZM10.0013 1.66797C12.2655 1.66797 12.548 1.6763 13.4371 1.71797C14.3238 1.75964 14.9288 1.8988 15.4596 2.10547C16.0096 2.31714 16.473 2.6038 16.9363 3.0663C17.36 3.48288 17.6879 3.98679 17.8971 4.54297C18.103 5.0738 18.243 5.6788 18.2846 6.5663C18.3238 7.45464 18.3346 7.73714 18.3346 10.0013C18.3346 12.2655 18.3263 12.548 18.2846 13.4363C18.243 14.3238 18.103 14.928 17.8971 15.4596C17.6885 16.0161 17.3605 16.5201 16.9363 16.9363C16.5196 17.3599 16.0157 17.6878 15.4596 17.8971C14.9288 18.103 14.3238 18.243 13.4371 18.2846C12.548 18.3238 12.2655 18.3346 10.0013 18.3346C7.73714 18.3346 7.45464 18.3263 6.56547 18.2846C5.6788 18.243 5.07464 18.103 4.54297 17.8971C3.98657 17.6884 3.48257 17.3604 3.0663 16.9363C2.64249 16.5198 2.3146 16.0158 2.10547 15.4596C1.8988 14.9288 1.75964 14.3238 1.71797 13.4363C1.67797 12.548 1.66797 12.2655 1.66797 10.0013C1.66797 7.73714 1.6763 7.45464 1.71797 6.5663C1.75964 5.67797 1.8988 5.07464 2.10547 4.54297C2.314 3.98645 2.64197 3.4824 3.0663 3.0663C3.48269 2.64233 3.98666 2.31441 4.54297 2.10547C5.0738 1.8988 5.67797 1.75964 6.56547 1.71797C7.45464 1.6788 7.73714 1.66797 10.0013 1.66797Z" fill="white"/>
</svg>
