<svg width="20" height="20" viewBox="0 0 20 20" fill="none" xmlns="http://www.w3.org/2000/svg">
<path d="M18.5101 4.71376C17.8742 4.99509 17.1998 5.17991 16.5093 5.26209C17.2368 4.82637 17.7812 4.14104 18.0409 3.33376C17.3576 3.74043 16.6084 4.02543 15.8284 4.17959C15.3039 3.61841 14.6087 3.24623 13.8509 3.12091C13.0931 2.9956 12.3151 3.12417 11.6378 3.48664C10.9606 3.84911 10.4221 4.42516 10.106 5.12525C9.78997 5.82535 9.71406 6.61024 9.8901 7.35793C8.50422 7.28859 7.14841 6.92853 5.91072 6.30115C4.67303 5.67376 3.58114 4.79307 2.70594 3.71626C2.39618 4.2483 2.2334 4.85312 2.23427 5.46876C2.23427 6.67709 2.8501 7.74459 3.78427 8.36959C3.23095 8.35214 2.68981 8.20271 2.20594 7.93376V7.97626C2.20591 8.78115 2.4843 9.56128 2.99388 10.1843C3.50346 10.8074 4.21287 11.235 5.00177 11.3946C4.48814 11.5339 3.94952 11.5545 3.42677 11.4546C3.64921 12.1474 4.08278 12.7533 4.66677 13.1874C5.25076 13.6215 5.9559 13.8621 6.68344 13.8754C5.9604 14.4433 5.13251 14.8631 4.24711 15.1107C3.36171 15.3584 2.43618 15.4291 1.52344 15.3188C3.11654 16.3432 4.97102 16.8871 6.8651 16.8854C13.2768 16.8854 16.7818 11.5746 16.7818 6.96876C16.7818 6.81876 16.7784 6.66709 16.7718 6.51793C17.4538 6.02489 18.0424 5.4134 18.5101 4.71376Z" fill="white"/>
</svg>
