<svg width="20" height="20" viewBox="0 0 20 20" fill="none" xmlns="http://www.w3.org/2000/svg">
<path d="M9.9974 8.33464C11.8383 8.33464 13.3307 6.84225 13.3307 5.0013C13.3307 3.16035 11.8383 1.66797 9.9974 1.66797C8.15645 1.66797 6.66406 3.16035 6.66406 5.0013C6.66406 6.84225 8.15645 8.33464 9.9974 8.33464Z" stroke="#84A17D" stroke-width="1.5"/>
<path d="M16.6629 15.0026C16.6654 14.8659 16.6654 14.7268 16.6654 14.5859C16.6654 12.5151 13.6804 10.8359 9.9987 10.8359C6.31703 10.8359 3.33203 12.5151 3.33203 14.5859C3.33203 16.6568 3.33203 18.3359 9.9987 18.3359C11.8579 18.3359 13.1987 18.2051 14.1654 17.9718" stroke="#84A17D" stroke-width="1.5" stroke-linecap="round"/>
</svg>
