<svg width="36" height="36" viewBox="0 0 36 36" fill="none" xmlns="http://www.w3.org/2000/svg">
<g clip-path="url(#clip0_348_191)">
<path d="M3.1626 26.5693V1.05469H32.8374V26.5693" stroke="white" stroke-width="2.10938" stroke-miterlimit="10" stroke-linecap="round" stroke-linejoin="round"/>
<path d="M34.9453 26.5703H1.05469V30.7823H34.9453V26.5703Z" stroke="white" stroke-width="2.10938" stroke-miterlimit="10" stroke-linecap="round" stroke-linejoin="round"/>
<path d="M12.0057 30.7852H10.9986C9.49367 30.7852 8.27368 32.0051 8.27368 33.5101V34.9493" stroke="white" stroke-width="2.10938" stroke-miterlimit="10" stroke-linecap="round" stroke-linejoin="round"/>
<path d="M23.9766 30.7852H24.9836C26.4885 30.7852 27.7085 32.0051 27.7085 33.5101V34.9493" stroke="white" stroke-width="2.10938" stroke-miterlimit="10" stroke-linecap="round" stroke-linejoin="round"/>
<path d="M10.5425 10.5933L7.77612 7.82694L10.5093 5.09375" stroke="white" stroke-width="2.10938" stroke-miterlimit="10" stroke-linecap="round" stroke-linejoin="round"/>
<path d="M25.6025 16.918L28.3689 19.6843L25.6357 22.4175" stroke="white" stroke-width="2.10938" stroke-miterlimit="10" stroke-linecap="round" stroke-linejoin="round"/>
<path d="M28.3689 19.6832H21.5977C19.6108 19.6832 18.0001 18.0724 18.0001 16.0856V11.4257C18.0001 9.43884 16.3894 7.82812 14.4025 7.82812H7.77612" stroke="white" stroke-width="2.10938" stroke-miterlimit="10" stroke-linecap="round" stroke-linejoin="round"/>
<path d="M25.8336 10.1721C27.2338 10.1721 28.3689 9.037 28.3689 7.63682C28.3689 6.23664 27.2338 5.10156 25.8336 5.10156C24.4334 5.10156 23.2983 6.23664 23.2983 7.63682C23.2983 9.037 24.4334 10.1721 25.8336 10.1721Z" stroke="white" stroke-width="2.10938" stroke-miterlimit="10" stroke-linecap="round" stroke-linejoin="round"/>
<path d="M11.3613 18.8359L7.77588 22.4213" stroke="white" stroke-width="2.10938" stroke-miterlimit="10" stroke-linecap="round" stroke-linejoin="round"/>
<path d="M11.3613 22.4213L7.77588 18.8359" stroke="white" stroke-width="2.10938" stroke-miterlimit="10" stroke-linecap="round" stroke-linejoin="round"/>
</g>
<defs>
<clipPath id="clip0_348_191">
<rect width="36" height="36" fill="white"/>
</clipPath>
</defs>
</svg>
