<svg width="48" height="48" viewBox="0 0 48 48" fill="none" xmlns="http://www.w3.org/2000/svg">
<g clip-path="url(#clip0_0_1365)">
<path d="M23.9218 17.8828C20.3745 17.8828 17.4876 20.7687 17.4876 24.3161C17.4876 27.8634 20.3745 30.7493 23.9218 30.7493C27.4692 30.7493 30.3551 27.8634 30.3551 24.3161C30.3551 20.7687 27.4692 17.8828 23.9218 17.8828ZM23.9218 27.8901C21.9509 27.8901 20.3468 26.287 20.3468 24.3161C20.3468 22.3451 21.9509 20.742 23.9218 20.742C25.8918 20.742 27.4959 22.3451 27.4959 24.3161C27.4959 26.2869 25.8918 27.8901 23.9218 27.8901Z" fill="white"/>
<path d="M37.2068 16.9453C34.8022 16.9453 32.8455 18.902 32.8455 21.3076V24.1859C32.8455 29.0638 28.8779 33.0314 24.001 33.0314C19.1231 33.0314 15.1545 29.0638 15.1545 24.1859V21.3076C15.1545 18.9021 13.1978 16.9453 10.7923 16.9453C8.38766 16.9453 6.43195 18.902 6.43195 21.3076V24.1326C6.43195 29.5479 8.94997 34.6745 13.2055 37.9941V46.5718C13.2055 47.3609 13.845 48.0014 14.6351 48.0014H33.2001C33.9892 48.0014 34.6297 47.3609 34.6297 46.5718V38.077C38.9881 34.7203 41.5681 29.4984 41.5681 23.9581V21.3076C41.5681 18.9021 39.6124 16.9453 37.2068 16.9453ZM31.7704 37.3546V45.1422H16.0647V37.2774C16.0647 36.8161 15.8407 36.3825 15.4652 36.1137C11.5986 33.3545 9.29118 28.876 9.29118 24.1326V21.3076C9.29118 20.4785 9.96405 19.8045 10.7923 19.8045C11.6214 19.8045 12.2953 20.4784 12.2953 21.3076V24.1859C12.2953 30.6402 17.5458 35.8907 24.001 35.8907C30.4542 35.8907 35.7048 30.6402 35.7048 24.1859V21.3076C35.7048 20.4785 36.3786 19.8045 37.2078 19.8045C38.036 19.8045 38.7088 20.4784 38.7088 21.3076V23.9581C38.7088 28.8217 36.3414 33.3927 32.3766 36.1861C31.9963 36.4539 31.7704 36.8895 31.7704 37.3546Z" fill="white"/>
<path d="M18.3676 10.7347L18.1474 14.974C18.0942 16.0176 19.1413 16.7596 20.1031 16.376L24.0003 14.8272L27.8974 16.376C28.8609 16.7582 29.9063 16.0185 29.8531 14.974L29.633 10.7347L32.2635 7.53906C32.9183 6.74629 32.5427 5.53417 31.5467 5.25454L27.4819 4.1118L25.1935 0.641647C24.6304 -0.214216 23.3697 -0.213549 22.807 0.641647L20.5187 4.1118L16.4538 5.25454C15.4562 5.53465 15.0834 6.74772 15.7371 7.53906L18.3676 10.7347ZM22.6126 6.13146L24.0003 4.02612L25.388 6.13146C25.5776 6.41834 25.8635 6.62802 26.1952 6.72047L28.6637 7.41431L27.073 9.34619C26.8462 9.62163 26.7308 9.97141 26.7489 10.3288L26.8824 12.8964L24.5283 11.9605C24.1908 11.8258 23.8099 11.8257 23.4723 11.9605L21.1182 12.8964L21.2516 10.3288C21.2697 9.97141 21.1544 9.62163 20.9276 9.34619L19.3369 7.41431L21.8053 6.72047C22.137 6.62802 22.4229 6.41825 22.6126 6.13146Z" fill="white"/>
<path d="M13.0086 13.8596C13.5669 14.4179 14.4721 14.4179 15.0304 13.8596C15.5887 13.3014 15.5887 12.3962 15.0304 11.8378L9.65418 6.46163C9.09596 5.90341 8.19073 5.90341 7.63242 6.46163C7.07411 7.01985 7.07411 7.92508 7.63242 8.48339L13.0086 13.8596Z" fill="white"/>
<path d="M35.3275 13.8596L40.7037 8.48339C41.262 7.92518 41.262 7.01994 40.7037 6.46163C40.1455 5.90341 39.2403 5.90341 38.682 6.46163L33.3058 11.8378C32.7474 12.3961 32.7474 13.3013 33.3058 13.8596C33.8641 14.4179 34.7692 14.4178 35.3275 13.8596Z" fill="white"/>
</g>
<defs>
<clipPath id="clip0_0_1365">
<rect width="48" height="48" fill="white"/>
</clipPath>
</defs>
</svg>
