<svg width="48" height="48" viewBox="0 0 48 48" fill="none" xmlns="http://www.w3.org/2000/svg">
<g clip-path="url(#clip0_0_1252)">
<mask id="mask0_0_1252" style="mask-type:luminance" maskUnits="userSpaceOnUse" x="0" y="0" width="48" height="48">
<path d="M48 0H0V48H48V0Z" fill="white"/>
</mask>
<g mask="url(#mask0_0_1252)">
<mask id="mask1_0_1252" style="mask-type:luminance" maskUnits="userSpaceOnUse" x="0" y="0" width="48" height="49">
<path d="M0 0.00781631H48V48.0078H0V0.00781631Z" fill="white"/>
</mask>
<g mask="url(#mask1_0_1252)">
<path d="M3.375 1.41016H39V46.5977H3.375V1.41016Z" stroke="#172426" stroke-width="2.8125" stroke-miterlimit="10" stroke-linecap="round" stroke-linejoin="round"/>
<path d="M39 1.41016H44.625V46.5977H39V1.41016Z" stroke="#172426" stroke-width="2.8125" stroke-miterlimit="10" stroke-linecap="round" stroke-linejoin="round"/>
<path d="M23.1723 17.4414L19.6519 8.19841C19.58 8.02263 19.331 8.02234 19.2588 8.19803L15.7705 17.4414" stroke="#172426" stroke-width="2.34375" stroke-miterlimit="10" stroke-linecap="round" stroke-linejoin="round"/>
<path d="M22.0742 15.1406H16.8504" stroke="#172426" stroke-width="2.34375" stroke-miterlimit="10" stroke-linecap="round" stroke-linejoin="round"/>
<path d="M27.2593 8.06641L33.8543 17.4414" stroke="#172426" stroke-width="2.34375" stroke-miterlimit="10" stroke-linecap="round" stroke-linejoin="round"/>
<path d="M33.3901 8.06641L26.7856 17.4414" stroke="#172426" stroke-width="2.34375" stroke-miterlimit="10" stroke-linecap="round" stroke-linejoin="round"/>
<path d="M13.6979 8.06641H8.52051" stroke="#172426" stroke-width="2.34375" stroke-miterlimit="10" stroke-linecap="round" stroke-linejoin="round"/>
<path d="M11.1201 8.36575V17.4414" stroke="#172426" stroke-width="2.34375" stroke-miterlimit="10" stroke-linecap="round" stroke-linejoin="round"/>
<path d="M14.625 28.6914V23.0664" stroke="#172426" stroke-width="2.8125" stroke-miterlimit="10" stroke-linecap="round" stroke-linejoin="round"/>
<path d="M14.625 34.3164V28.6914" stroke="#172426" stroke-width="2.8125" stroke-miterlimit="10" stroke-linecap="round" stroke-linejoin="round"/>
<path d="M9 39.9414H33.375V23.0664H9V39.9414Z" stroke="#172426" stroke-width="2.8125" stroke-miterlimit="10" stroke-linecap="round" stroke-linejoin="round"/>
<path d="M14.625 39.9414V34.3164" stroke="#172426" stroke-width="2.8125" stroke-miterlimit="10" stroke-linecap="round" stroke-linejoin="round"/>
<path d="M14.625 34.3164H33.375" stroke="#172426" stroke-width="2.8125" stroke-miterlimit="10" stroke-linecap="round" stroke-linejoin="round"/>
<path d="M33.375 28.6914H9" stroke="#172426" stroke-width="2.8125" stroke-miterlimit="10" stroke-linecap="round" stroke-linejoin="round"/>
</g>
</g>
</g>
<defs>
<clipPath id="clip0_0_1252">
<rect width="48" height="48" fill="white"/>
</clipPath>
</defs>
</svg>
