<svg width="17" height="16" viewBox="0 0 17 16" fill="none" xmlns="http://www.w3.org/2000/svg">
<path d="M3.78381 2.16742C3.78351 2.84601 3.37181 3.45666 2.74286 3.71142C2.11391 3.96619 1.39331 3.81419 0.920831 3.32711C0.448356 2.84001 0.318373 2.11511 0.592164 1.49421C0.865964 0.873305 1.48886 0.480397 2.16715 0.500755C3.06804 0.527797 3.78422 1.26612 3.78381 2.16742ZM3.83381 5.06742H0.500481V15.5007H3.83381V5.06742ZM9.1005 5.06742H5.78381V15.5007H9.06716V10.0257C9.06716 6.97573 13.0422 6.6924 13.0422 10.0257V15.5007H16.3338V8.8924C16.3338 3.75075 10.4505 3.94242 9.06716 6.4674L9.1005 5.06742Z" fill="#0A165E"/>
</svg>
