<svg width="36" height="36" viewBox="0 0 36 36" fill="none" xmlns="http://www.w3.org/2000/svg">
<path d="M33.253 22.541L29.1086 21.2869C22.6955 14.8774 23.0707 15.0063 22.5558 14.8715C24.3297 12.6333 26.1375 9.02746 26.1375 3.62816C26.1375 3.03697 25.6513 2.56103 25.0602 2.57368C22.4064 2.63064 19.7703 1.79054 17.6386 0.207879C17.2652 -0.069293 16.7545 -0.069293 16.3811 0.207879C14.2445 1.79427 11.6066 2.63711 8.95465 2.57945C8.37295 2.56419 7.87732 3.0362 7.87732 3.63393C7.87732 9.00995 9.65025 12.5987 11.4081 14.8359H7.50164C7.10459 14.8359 6.74121 15.0589 6.56135 15.4129L3.64191 21.1588H2.46094C1.10398 21.1588 0 22.2628 0 23.6198V27.7896C0 29.922 1.73482 31.6568 3.86719 31.6568H4.2577C4.23352 34.0548 6.17745 36 8.55647 36C10.9357 36 12.8794 34.0546 12.8552 31.6568H23.2096C23.1854 34.0548 25.1293 36 27.5084 36C29.8876 36 31.8313 34.0546 31.8071 31.6568H34.9453C35.5278 31.6568 36 31.1846 36 30.6021V26.2424C36 24.5257 34.896 23.0382 33.253 22.541ZM10.0112 4.66836C12.4962 4.52443 14.9271 3.71788 17.0099 2.342C19.0895 3.71486 21.5182 4.51951 24.0041 4.66267C23.8207 8.54307 22.5917 11.7543 20.3436 14.2193C19.0012 15.6913 17.6396 16.484 17.0033 16.8044C15.559 16.0911 10.4094 12.9745 10.0112 4.66836ZM10.6875 16.9453H13.4409C15.1295 18.375 16.5662 18.9224 16.6404 18.95C16.8807 19.0396 17.145 19.0386 17.3849 18.9471C17.4585 18.919 18.8767 18.3656 20.5502 16.9453H21.8488L26.0155 21.1589H10.6875V16.9453ZM8.55647 33.8907C7.34864 33.8907 6.36595 32.908 6.36595 31.7001C6.36595 30.4923 7.34864 29.5097 8.55647 29.5097C9.7643 29.5097 10.747 30.4924 10.747 31.7001C10.747 32.908 9.76437 33.8907 8.55647 33.8907ZM27.5084 33.8907C26.3006 33.8907 25.3179 32.908 25.3179 31.7001C25.3179 30.4923 26.3006 29.5097 27.5084 29.5097C28.7163 29.5097 29.6989 30.4924 29.6989 31.7001C29.6989 32.908 28.7163 33.8907 27.5084 33.8907ZM31.2282 29.5475C29.571 26.6949 25.4558 26.6778 23.7886 29.5475H12.2764C10.6191 26.6949 6.50391 26.6778 4.83673 29.5475H3.86719C2.89793 29.5475 2.10938 28.7589 2.10938 27.7896V27.5625H3.23438C3.81684 27.5625 4.28906 27.0903 4.28906 26.5078C4.28906 25.9254 3.81684 25.4532 3.23438 25.4532H2.10938V23.6198C2.10938 23.426 2.26709 23.2683 2.46094 23.2683H4.28906C4.68612 23.2683 5.04949 23.0453 5.22935 22.6914L8.1488 16.9453H8.57812V22.2136C8.57812 22.796 9.05034 23.2683 9.63281 23.2683H28.3735L32.642 24.5599C33.0805 24.6926 33.4335 24.9812 33.651 25.3542H32.5547C31.9722 25.3542 31.5 25.8264 31.5 26.4089C31.5 26.9914 31.9722 27.4636 32.5547 27.4636H33.8906V29.5475L31.2282 29.5475Z" fill="#153C3C"/>
</svg>
