<svg width="36" height="34" viewBox="0 0 36 34" fill="none" xmlns="http://www.w3.org/2000/svg">
<path d="M31.7263 24.7132C29.7355 24.7132 28.0588 26.0812 27.5858 27.9264H26.7522C26.2952 27.9264 25.9236 27.5548 25.9236 27.0978V21.9507H29.1794C32.9402 21.9507 35.9999 18.891 35.9999 15.1301C35.9999 11.3692 32.9402 8.30952 29.1794 8.30952C28.8421 8.30952 28.5064 8.33452 28.1747 8.38368C26.8758 3.90457 22.7601 0.757812 18 0.757812C13.2399 0.757812 9.12413 3.90457 7.82527 8.38368C7.49349 8.33424 7.15785 8.30952 6.82057 8.30952C3.05969 8.30952 0 11.3692 0 15.1298C0 18.8907 3.05969 21.9504 6.82057 21.9504H10.0764V27.0978C10.0764 27.5545 9.70475 27.9264 9.24772 27.9264H8.41414C7.94118 26.0812 6.26439 24.7132 4.27367 24.7132C1.91711 24.7132 0 26.6306 0 28.9871C0 31.3437 1.91711 33.2608 4.27367 33.2608C6.26439 33.2608 7.94118 31.893 8.41414 30.0476H9.24772C10.8742 30.0476 12.1975 28.7243 12.1975 27.0978V21.9507H16.9392V24.8467C15.0941 25.3196 13.7263 26.9967 13.7263 28.9871C13.7263 31.3437 15.6434 33.2608 18 33.2608C20.3565 33.2608 22.2736 31.3437 22.2736 28.9871C22.2736 26.9967 20.9056 25.3196 19.0607 24.8467V21.9507H23.8024V27.0978C23.8024 28.7243 25.1257 30.0476 26.7522 30.0476H27.5858C28.0588 31.893 29.7355 33.2608 31.7263 33.2608C34.0828 33.2608 35.9999 31.3437 35.9999 28.9871C35.9999 26.6306 34.0828 24.7132 31.7263 24.7132ZM4.27367 31.1396C3.08688 31.1396 2.12118 30.1739 2.12118 28.9871C2.12118 27.8001 3.08688 26.8346 4.27367 26.8346C5.46074 26.8346 6.42617 27.8001 6.42617 28.9871C6.42617 30.1739 5.46074 31.1396 4.27367 31.1396ZM20.1525 28.9871C20.1525 30.1739 19.1868 31.1396 18 31.1396C16.8132 31.1396 15.8475 30.1739 15.8475 28.9871C15.8475 27.8001 16.8132 26.8346 18 26.8346C19.1868 26.8346 20.1525 27.8001 20.1525 28.9871ZM2.12118 15.1298C2.12118 12.5387 4.22918 10.4307 6.82057 10.4307C7.31853 10.4307 7.81126 10.5093 8.28477 10.6644C8.57646 10.76 8.89506 10.7246 9.15874 10.5672C9.42213 10.4098 9.6045 10.1462 9.65889 9.84404C10.384 5.80822 13.8919 2.87899 18 2.87899C22.108 2.87899 25.6159 5.80822 26.341 9.84404C26.3954 10.1462 26.5778 10.4098 26.8412 10.5672C27.1046 10.7246 27.4235 10.76 27.7152 10.6644C28.1887 10.5093 28.6814 10.4307 29.1794 10.4307C31.7705 10.4307 33.8787 12.5387 33.8787 15.1298C33.8787 17.7212 31.7708 19.8292 29.1794 19.8292H6.82057C4.22918 19.8292 2.12118 17.7212 2.12118 15.1298ZM31.7263 31.1396C30.5392 31.1396 29.5738 30.1739 29.5738 28.9871C29.5738 27.8001 30.5392 26.8344 31.7263 26.8344C32.9131 26.8344 33.8787 27.8001 33.8787 28.9871C33.8787 30.1739 32.9131 31.1396 31.7263 31.1396Z" fill="#153C3C"/>
</svg>
