<svg width="24" height="24" viewBox="0 0 24 24" fill="none" xmlns="http://www.w3.org/2000/svg">
<path fill-rule="evenodd" clip-rule="evenodd" d="M11.2622 22.134C11.2622 22.134 4.00024 16.018 4.00024 10C4.00024 7.87827 4.8431 5.84344 6.34339 4.34315C7.84368 2.84285 9.87851 2 12.0002 2C14.122 2 16.1568 2.84285 17.6571 4.34315C19.1574 5.84344 20.0002 7.87827 20.0002 10C20.0002 16.018 12.7382 22.134 12.7382 22.134C12.3342 22.506 11.6692 22.502 11.2622 22.134ZM12.0002 13.5C12.4599 13.5 12.915 13.4095 13.3396 13.2336C13.7643 13.0577 14.1501 12.7999 14.4751 12.4749C14.8001 12.1499 15.0579 11.764 15.2338 11.3394C15.4097 10.9148 15.5002 10.4596 15.5002 10C15.5002 9.54037 15.4097 9.08525 15.2338 8.66061C15.0579 8.23597 14.8001 7.85013 14.4751 7.52513C14.1501 7.20012 13.7643 6.94231 13.3396 6.76642C12.915 6.59053 12.4599 6.5 12.0002 6.5C11.072 6.5 10.1817 6.86875 9.52537 7.52513C8.86899 8.1815 8.50024 9.07174 8.50024 10C8.50024 10.9283 8.86899 11.8185 9.52537 12.4749C10.1817 13.1313 11.072 13.5 12.0002 13.5Z" fill="white"/>
</svg>
