<svg width="20" height="20" viewBox="0 0 20 20" fill="none" xmlns="http://www.w3.org/2000/svg">
<path fill-rule="evenodd" clip-rule="evenodd" d="M9.38516 18.4463C9.38516 18.4463 3.3335 13.3496 3.3335 8.33464C3.3335 6.56653 4.03588 4.87083 5.28612 3.62059C6.53636 2.37035 8.23205 1.66797 10.0002 1.66797C11.7683 1.66797 13.464 2.37035 14.7142 3.62059C15.9645 4.87083 16.6668 6.56653 16.6668 8.33464C16.6668 13.3496 10.6152 18.4463 10.6152 18.4463C10.2785 18.7563 9.72433 18.753 9.38516 18.4463ZM10.0002 11.2513C10.3832 11.2513 10.7625 11.1759 11.1163 11.0293C11.4702 10.8827 11.7917 10.6679 12.0626 10.397C12.3334 10.1262 12.5482 9.80466 12.6948 9.4508C12.8414 9.09693 12.9168 8.71766 12.9168 8.33464C12.9168 7.95161 12.8414 7.57234 12.6948 7.21848C12.5482 6.86461 12.3334 6.54308 12.0626 6.27224C11.7917 6.0014 11.4702 5.78656 11.1163 5.63999C10.7625 5.49341 10.3832 5.41797 10.0002 5.41797C9.22661 5.41797 8.48475 5.72526 7.93777 6.27224C7.39079 6.81922 7.0835 7.56109 7.0835 8.33464C7.0835 9.10818 7.39079 9.85005 7.93777 10.397C8.48475 10.944 9.22661 11.2513 10.0002 11.2513Z" fill="white"/>
</svg>
